<?xml version="1.0" encoding="UTF-8"?>
<svg viewBox="0 0 71 107" version="1.1" xmlns="http://www.w3.org/2000/svg" xmlns:xlink="http://www.w3.org/1999/xlink">
    <defs>
        <path d="M19.11,62.36 L28.6,62.36 C48.62,62.36 59.93,52.22 59.93,31.42 C59.93,9.19 46.54,1 26,1 L0,1 L0,99.02 L19.11,99.02 L19.11,62.36 Z M19.11,16.86 L22.49,16.86 C33.15,16.86 40.43,18.68 40.43,31.29 C40.43,44.03 34.32,46.5 23.01,46.5 L19.11,46.5 L19.11,16.86 Z" id="path-1"></path>
        <filter x="-10.0%" y="-6.1%" width="120.0%" height="112.2%" filterUnits="objectBoundingBox" id="filter-2">
            <feOffset dx="0" dy="0" in="SourceAlpha" result="shadowOffsetOuter1"></feOffset>
            <feGaussianBlur stdDeviation="2" in="shadowOffsetOuter1" result="shadowBlurOuter1"></feGaussianBlur>
            <feColorMatrix values="0 0 0 0 0   0 0 0 0 0   0 0 0 0 0  0 0 0 0.5 0" type="matrix" in="shadowBlurOuter1"></feColorMatrix>
        </filter>
    </defs>
    <g stroke="none" stroke-width="1" fill="none" fill-rule="evenodd">
        <g transform="translate(4.000000, 3.000000)" fill-rule="nonzero">
            <path d="M38.63,57.66 C51.76,55.45 58.65,42.97 58.65,30.49 C58.65,9.56 45.26,0.98 25.89,0.98 L0.02,0.98 L0.02,99 L19.13,99 L19.13,59.48 L19.39,59.48 L43.18,99 L66.32,99 L38.63,57.66 Z M16.02,13.98 L19.3321019,13.98 C32.2492994,13.98 42.02,16.8354185 42.02,31.5884141 C42.02,46.1827753 32.5805096,49.99 19.1664968,49.99 L16.02,49.99 L16.02,13.98 Z" id="R" fill="#F6A623"></path>
            <g id="path-1">
                <use fill="#000000" fill-opacity="1" filter="url(#filter-2)" xlink:href="#path-1"></use>
                <use fill="#FFFFFF" fill-rule="evenodd" xlink:href="#path-1"></use>
            </g>
        </g>
    </g>
</svg>
