<?xml version="1.0" encoding="utf-8"?>
<!-- Generator: Adobe Illustrator 22.1.0, SVG Export Plug-In . SVG Version: 6.00 Build 0)  -->
<svg version="1.1" xmlns="http://www.w3.org/2000/svg" xmlns:xlink="http://www.w3.org/1999/xlink" x="0px" y="0px"
	 viewBox="0 0 138.5614929 202.0303497" style="enable-background:new 0 0 138.5614929 202.0303497;" xml:space="preserve">
<style type="text/css">
	.st0{fill:none;stroke:#E9E9E9;stroke-width:2;stroke-miterlimit:10;}
	.st1{fill:#FFFFFF;}
</style>
<g id="Ebene_1">
	<g>
		<path fill="#E9E9E9" d="M69.2806168,132.5545807c-34.8894768,0-63.2739677-28.384491-63.2739677-63.2739716
			S34.39114,6.006639,69.2806168,6.006639s63.2742233,28.3844891,63.2742233,63.2739716
			S104.1700974,132.5545807,69.2806168,132.5545807z M69.2806168,21.9239025
			c-26.112442,0-47.3567047,21.2442608-47.3567047,47.3567047s21.2442627,47.3567047,47.3567047,47.3567047
			c26.112709,0,47.3569641-21.2442627,47.3569641-47.3567047S95.3933258,21.9239025,69.2806168,21.9239025z"/>
	</g>
	<g>
		<path fill="#E9E9E9" class="st0" d="M69.2806091,137.5612183C31.6304512,137.5612183,1,106.9307632,1,69.2806091S31.6304512,1,69.2806091,1
			s68.2808838,30.6304512,68.2808838,68.2806091S106.9307632,137.5612183,69.2806091,137.5612183z M69.2806091,18.1767387
			c-28.1786308,0-51.1038704,22.9252396-51.1038704,51.1038704s22.9252396,51.1038666,51.1038704,51.1038666
			c28.1789093,0,51.1041489-22.9252396,51.1041489-51.1038666S97.4595184,18.1767387,69.2806091,18.1767387z"/>
	</g>
	<g>
		<g>
			<path fill="#E9E9E9" d="M88.1699295,72.8728027c-5.0175781-0.0722656-13.7207031-17.484375-13.7207031-27.4794922
				c0-2.878418,0.2822266-3.340332,4.1611328-3.340332c11.8632812,0,19.2333984,2.2050781,19.2333984,5.7543945
				C97.8437576,59.9694824,90.4257889,72.3654785,88.1699295,72.8728027z"/>
			<path fill="#E9E9E9" d="M78.609993,44.0528641c12.8944397,0,17.2340393,2.5784149,17.2340393,3.7546387
				c0,9.714798-5.4408264,20.6460953-8.0407715,22.9265823c-1.1835327-0.5986023-3.8195496-3.1678391-6.6732178-8.9893188
				c-2.7995911-5.7112198-4.6805725-12.2823639-4.6805725-16.3514481c0-0.5930252,0.0392456-0.9760742,0.0781555-1.2101288
				C76.8542252,44.1221313,77.4749222,44.0528641,78.609993,44.0528641 M78.609993,40.0528641
				c-4.4490356,0-6.1605225,0.8593826-6.1605225,5.3404541c0,9.8269424,8.7321472,29.4796295,15.7516479,29.4796295
				c3.9346313,0,11.6429138-14.8289566,11.6429138-27.0654449C99.8440323,41.7759094,89.2233658,40.0528641,78.609993,40.0528641
				L78.609993,40.0528641z"/>
		</g>
		<g>
			<path fill="#E9E9E9" d="M62.3476601,104.5769043c-4.2197189,0-10.6547775-7.1606445-16.3940353-18.2421875
				c-5.5874023-10.7890625-9.3417969-22.8081055-9.3417969-29.9077148c0-1.831543,0.3515625-3.3959961,0.9663086-4.3095703
				c2.8383789-3.3925781,11.5380859-6.8066406,21.190918-8.4697266c-0.1972656,0.9013672-0.3022461,1.9775391-0.3022461,3.2963867
				c0,9.472168,11.5307579,39.2729492,21.6708946,41.2490234C73.4726562,98.1218262,65.8569412,104.5769043,62.3476601,104.5769043z
				"/>
			<path fill="#E9E9E9" d="M56.4797173,46.132515c-0.0087891,0.2635498-0.0131226,0.5339432-0.0131226,0.811348
				c0,6.3450775,3.9440918,17.4546967,7.6086388,25.0917816c4.3758545,9.1194839,8.7189941,14.8557892,12.9603271,17.1356354
				c-6.3991089,8.9277649-12.5880127,13.4055786-14.6877098,13.4055786c-0.5394897,0-2.5805969-0.3135223-6.1942749-4.3476105
				c-2.7721558-3.0946808-5.6851501-7.5257645-8.4240112-12.8142548
				c-5.3684082-10.3659668-9.1178284-22.286293-9.1178284-28.9880753c0-1.586113,0.298645-2.6421356,0.5776672-3.1166306
				C41.5065117,50.6587296,48.5665703,47.8115005,56.4797173,46.132515 M62.5180473,41.083992
				c-10.2714844,1.2067108-22.5959167,5.0020218-26.5366821,9.826149c-0.8521423,1.2082672-1.3696289,3.1026001-1.3696289,5.516777
				c0,15.3403091,16.2637329,50.1499405,27.7361145,50.1499405c5.3083763,0,14.7371178-9.2383728,21.6188316-20.680336
				c-0.5557556,0.3777771-2.294281,0.4002228-2.699646,0.4002228c-0.054657,0-0.085083-0.0004044-0.085083-0.0004044
				c-8.3805847,0-20.7153587-29.5255508-20.7153587-39.352478C60.4665947,43.326828,61.3167534,42.1193542,62.5180473,41.083992
				L62.5180473,41.083992z"/>
		</g>
	</g>
	<polygon fill="#E9E9E9" points="69.5661774,121.8593674 36.8948288,110.0371933 36.8948288,202.0303497 69.5661774,187.3649292 
		102.2375259,202.0303497 102.2375259,110.0371933 	"/>
	<g>
		<path fill="#E9E9E9" class="st1" d="M61.304039,126.0239868v14.4864349h-2.0197182v-14.4864349h-3.5750389v-1.7642822h9.1697922v1.7642822
			H61.304039z"/>
		<path fill="#E9E9E9" class="st1" d="M73.5387421,140.2784119c-0.510498,0.1390533-1.8107529,0.3945007-2.5766983,0.3945007
			c-3.3199768,0-4.6897583-1.6252289-4.6897583-8.5432892c0-6.8485336,1.578743-8.032402,4.9682465-8.032402
			c0.742897,0,1.6717072,0.1624832,2.2982101,0.3249664v1.717804c-0.7659378-0.1855316-1.8107529-0.301918-2.7161331-0.301918
			c-1.6947479,0-2.4841232,0.8358459-2.4841232,6.4540405c0,5.8501892,0.8358536,6.6395569,2.5075531,6.6395569
			c0.9518585,0,2.1122971-0.2089539,2.6927032-0.3480072V140.2784119z"/>
		<path fill="#E9E9E9" class="st1" d="M82.8948288,140.2784119c-0.5105057,0.1390533-1.8107529,0.3945007-2.5766983,0.3945007
			c-3.3199768,0-4.6897583-1.6252289-4.6897583-8.5432892c0-6.8485336,1.578743-8.032402,4.9682465-8.032402
			c0.742897,0,1.6716995,0.1624832,2.2982101,0.3249664v1.717804c-0.7659454-0.1855316-1.8107529-0.301918-2.7161331-0.301918
			c-1.6947556,0-2.4841232,0.8358459-2.4841232,6.4540405c0,5.8501892,0.8358459,6.6395569,2.5075455,6.6395569
			c0.9518585,0,2.1123047-0.2089539,2.6927109-0.3480072V140.2784119z"/>
	</g>
	<path fill="#E9E9E9" class="st1" d="M70.2676468,178.529068c-2.9976425,0-7.9795761-0.4220581-7.9795761-0.4220581v-29.5532074
		c0,0,5.1083603-0.4220581,7.4727097-0.4220581c6.7974091,0,10.5123672,2.2799377,10.5123672,14.7341919
		C80.2731476,175.447403,76.8114243,178.529068,70.2676468,178.529068z M70.6897125,153.2401123
		c-1.5622253,0-2.6175842,0.1688232-2.6175842,0.1688232v19.8429413c0,0,0.8021164,0.1688385,2.5751877,0.1688385
		c2.6175842,0,3.7577515-2.1531219,3.7577515-10.25914C74.4050674,154.0846252,73.2228928,153.2401123,70.6897125,153.2401123z"/>
</g>
</svg>
