<?xml version="1.0" encoding="UTF-8" standalone="no"?>
<!DOCTYPE svg PUBLIC "-//W3C//DTD SVG 1.1//EN" "http://www.w3.org/Graphics/SVG/1.1/DTD/svg11.dtd">
<svg width="100%" height="100%" viewBox="0 0 210 105" version="1.1" xmlns="http://www.w3.org/2000/svg" xmlns:xlink="http://www.w3.org/1999/xlink" xml:space="preserve" xmlns:serif="http://www.serif.com/" style="fill-rule:evenodd;clip-rule:evenodd;stroke-linejoin:round;stroke-miterlimit:1.41421;">
    <rect x="0" y="0" width="210" height="105" style="fill:rgb(233,233,233);"/>
    <g>
        <path d="M59.3,62.9C58.5,63.1 57.8,63.2 57,63.2C50,63.2 39.8,38.9 39.8,30.8C39.8,27.8 40.5,26.8 41.5,26C33,27 22.8,30.1 19.5,34.1C18.8,35.1 18.4,36.7 18.4,38.6C18.4,51.2 31.9,79.9 41.4,79.9C45.8,79.9 53.3,72.7 59.3,62.9Z" style="fill:rgb(140,140,140);fill-rule:nonzero;"/>
        <path d="M54.9,25.1C63.7,25.1 72.5,26.5 72.5,31.5C72.5,41.6 66.1,53.8 62.9,53.8C57.1,53.8 49.9,37.6 49.9,29.5C49.8,25.8 51.2,25.1 54.9,25.1Z" style="fill:rgb(140,140,140);fill-rule:nonzero;"/>
    </g>
    <rect x="89.8" y="9.1" width="0.5" height="87.5" style="fill:rgb(140,140,140);"/>
    <g transform="matrix(1,0,0,1,108.188,39.8466)">
        <path d="M4.889,-9.727L4.889,0L2.587,0L2.587,-9.727L0.168,-9.727L0.168,-11.76L7.308,-11.76L7.308,-9.727L4.889,-9.727Z" style="fill:rgb(140,140,140);fill-rule:nonzero;"/>
        <g transform="matrix(1,0,0,1,7.5,0)">
            <path d="M5.611,-5.174L5.611,0L3.259,0L3.259,-5.174L0.168,-11.76L2.654,-11.76L4.519,-7.224L6.384,-11.76L8.753,-11.76L5.611,-5.174Z" style="fill:rgb(140,140,140);fill-rule:nonzero;"/>
        </g>
        <g transform="matrix(1,0,0,1,16.2,0)">
            <path d="M5.813,-7.896C5.813,-8.557 5.726,-9.058 5.552,-9.4C5.379,-9.741 5.051,-9.912 4.57,-9.912C4.211,-9.912 3.937,-9.895 3.746,-9.862C3.634,-9.839 3.545,-9.822 3.478,-9.811L3.478,-6.031L4.536,-6.031C4.928,-6.031 5.239,-6.199 5.468,-6.535C5.698,-6.871 5.813,-7.325 5.813,-7.896ZM8.148,-8.014C8.148,-7.274 8.07,-6.653 7.913,-6.149C7.756,-5.645 7.521,-5.236 7.207,-4.922C6.894,-4.609 6.504,-4.385 6.04,-4.25C5.575,-4.116 5.04,-4.049 4.435,-4.049L3.478,-4.049L3.478,0L1.176,0L1.176,-11.76C1.501,-11.782 1.842,-11.81 2.201,-11.844C2.503,-11.866 2.836,-11.886 3.2,-11.903C3.564,-11.92 3.92,-11.928 4.267,-11.928C5.029,-11.928 5.659,-11.841 6.157,-11.668C6.656,-11.494 7.053,-11.242 7.35,-10.912C7.647,-10.581 7.854,-10.172 7.972,-9.685C8.089,-9.198 8.148,-8.641 8.148,-8.014Z" style="fill:rgb(140,140,140);fill-rule:nonzero;"/>
        </g>
        <g transform="matrix(1,0,0,1,24.7,0)">
            <path d="M6.367,-5.93C6.367,-6.793 6.339,-7.496 6.283,-8.039C6.227,-8.582 6.138,-9.008 6.014,-9.316C5.891,-9.624 5.729,-9.834 5.527,-9.946C5.326,-10.058 5.074,-10.114 4.771,-10.114C4.469,-10.114 4.217,-10.058 4.015,-9.946C3.814,-9.834 3.651,-9.624 3.528,-9.316C3.405,-9.008 3.315,-8.582 3.259,-8.039C3.203,-7.496 3.175,-6.793 3.175,-5.93C3.175,-5.079 3.203,-4.379 3.259,-3.83C3.315,-3.282 3.405,-2.845 3.528,-2.52C3.651,-2.195 3.814,-1.968 4.015,-1.84C4.217,-1.711 4.469,-1.646 4.771,-1.646C5.074,-1.646 5.326,-1.711 5.527,-1.84C5.729,-1.968 5.891,-2.195 6.014,-2.52C6.138,-2.845 6.227,-3.282 6.283,-3.83C6.339,-4.379 6.367,-5.079 6.367,-5.93ZM8.702,-6.014C8.702,-4.984 8.655,-4.082 8.56,-3.31C8.464,-2.537 8.274,-1.893 7.988,-1.378C7.703,-0.862 7.302,-0.476 6.787,-0.218C6.272,0.039 5.6,0.168 4.771,0.168C3.942,0.168 3.27,0.039 2.755,-0.218C2.24,-0.476 1.84,-0.862 1.554,-1.378C1.268,-1.893 1.078,-2.537 0.983,-3.31C0.888,-4.082 0.84,-4.984 0.84,-6.014C0.84,-7 0.893,-7.862 1,-8.602C1.106,-9.341 1.305,-9.957 1.596,-10.45C1.887,-10.942 2.288,-11.312 2.797,-11.558C3.307,-11.805 3.965,-11.928 4.771,-11.928C5.578,-11.928 6.236,-11.805 6.745,-11.558C7.255,-11.312 7.655,-10.942 7.946,-10.45C8.238,-9.957 8.436,-9.341 8.543,-8.602C8.649,-7.862 8.702,-7 8.702,-6.014Z" style="fill:rgb(140,140,140);fill-rule:nonzero;"/>
        </g>
        <g transform="matrix(1,0,0,1,33.4,0)">
            <path d="M6.686,-3.494C6.686,-2.789 6.602,-2.201 6.434,-1.73C6.266,-1.26 6.034,-0.888 5.737,-0.613C5.44,-0.339 5.09,-0.143 4.687,-0.025C4.284,0.092 3.847,0.151 3.377,0.151C3.175,0.151 2.946,0.137 2.688,0.109C2.43,0.081 2.184,0.05 1.949,0.017C1.714,-0.017 1.506,-0.048 1.327,-0.076C1.148,-0.104 1.042,-0.123 1.008,-0.134L1.008,-1.999C1.109,-1.977 1.24,-1.949 1.403,-1.915C1.565,-1.882 1.742,-1.851 1.932,-1.823C2.122,-1.795 2.321,-1.77 2.528,-1.747C2.736,-1.725 2.929,-1.714 3.108,-1.714C3.511,-1.714 3.833,-1.851 4.074,-2.125C4.315,-2.4 4.435,-2.8 4.435,-3.326C4.435,-3.987 4.337,-4.463 4.141,-4.754C3.945,-5.046 3.59,-5.191 3.074,-5.191L1.781,-5.191L1.781,-7.022L2.906,-7.022C3.388,-7.022 3.732,-7.162 3.94,-7.442C4.147,-7.722 4.25,-8.114 4.25,-8.618C4.25,-9.1 4.161,-9.458 3.982,-9.694C3.802,-9.929 3.5,-10.046 3.074,-10.046C2.705,-10.046 2.344,-10.013 1.991,-9.946C1.638,-9.878 1.338,-9.817 1.092,-9.761L1.092,-11.626C1.137,-11.637 1.238,-11.656 1.394,-11.684C1.551,-11.712 1.733,-11.743 1.94,-11.777C2.148,-11.81 2.372,-11.841 2.612,-11.869C2.853,-11.897 3.08,-11.911 3.293,-11.911C3.83,-11.911 4.298,-11.858 4.696,-11.752C5.093,-11.645 5.426,-11.463 5.695,-11.206C5.964,-10.948 6.163,-10.604 6.292,-10.172C6.42,-9.741 6.485,-9.206 6.485,-8.568C6.485,-8.322 6.462,-8.072 6.418,-7.82C6.373,-7.568 6.3,-7.336 6.199,-7.123C6.098,-6.91 5.97,-6.723 5.813,-6.56C5.656,-6.398 5.46,-6.278 5.225,-6.199C5.695,-6.11 6.056,-5.846 6.308,-5.41C6.56,-4.973 6.686,-4.334 6.686,-3.494Z" style="fill:rgb(140,140,140);fill-rule:nonzero;"/>
        </g>
    </g>
    <rect x="108.2" y="53.2" width="91.8" height="30.6" style="fill:none;"/>
    <g transform="matrix(1,0,0,1,108.188,63.9412)">
        <path d="M0.825,-4.965C0.825,-1.815 2.52,0.18 4.965,0.18C6.24,0.18 7.14,-0.36 7.905,-1.23L7.485,-1.665C6.765,-0.855 6.015,-0.45 4.995,-0.45C2.865,-0.45 1.545,-2.22 1.545,-4.965C1.545,-7.71 2.88,-9.435 5.055,-9.435C5.955,-9.435 6.675,-9.03 7.2,-8.43L7.62,-8.88C7.095,-9.495 6.195,-10.065 5.055,-10.065C2.535,-10.065 0.825,-8.1 0.825,-4.965Z" style="fill:rgb(140,140,140);fill-rule:nonzero;"/>
        <path d="M9.24,-3.585C9.24,-1.2 10.74,0.18 12.465,0.18C14.205,0.18 15.705,-1.2 15.705,-3.585C15.705,-6 14.205,-7.38 12.465,-7.38C10.74,-7.38 9.24,-6 9.24,-3.585ZM9.93,-3.585C9.93,-5.49 11.01,-6.795 12.465,-6.795C13.92,-6.795 15.015,-5.49 15.015,-3.585C15.015,-1.695 13.92,-0.405 12.465,-0.405C11.01,-0.405 9.93,-1.695 9.93,-3.585Z" style="fill:rgb(140,140,140);fill-rule:nonzero;"/>
        <path d="M17.865,0L18.525,0L18.525,-5.43C19.32,-6.33 20.04,-6.78 20.685,-6.78C21.795,-6.78 22.305,-6.06 22.305,-4.53L22.305,0L22.965,0L22.965,-5.43C23.76,-6.33 24.45,-6.78 25.125,-6.78C26.22,-6.78 26.73,-6.06 26.73,-4.53L26.73,0L27.405,0L27.405,-4.62C27.405,-6.48 26.685,-7.38 25.245,-7.38C24.42,-7.38 23.625,-6.81 22.8,-5.91C22.545,-6.795 21.96,-7.38 20.805,-7.38C20.01,-7.38 19.185,-6.825 18.54,-6.09L18.495,-6.09L18.435,-7.2L17.865,-7.2L17.865,0Z" style="fill:rgb(140,140,140);fill-rule:nonzero;"/>
        <path d="M30.045,0L30.705,0L30.705,-5.43C31.5,-6.33 32.22,-6.78 32.865,-6.78C33.975,-6.78 34.485,-6.06 34.485,-4.53L34.485,0L35.145,0L35.145,-5.43C35.94,-6.33 36.63,-6.78 37.305,-6.78C38.4,-6.78 38.91,-6.06 38.91,-4.53L38.91,0L39.585,0L39.585,-4.62C39.585,-6.48 38.865,-7.38 37.425,-7.38C36.6,-7.38 35.805,-6.81 34.98,-5.91C34.725,-6.795 34.14,-7.38 32.985,-7.38C32.19,-7.38 31.365,-6.825 30.72,-6.09L30.675,-6.09L30.615,-7.2L30.045,-7.2L30.045,0Z" style="fill:rgb(140,140,140);fill-rule:nonzero;"/>
        <path d="M42.12,-2.58C42.12,-0.72 42.81,0.18 44.295,0.18C45.285,0.18 46.035,-0.375 46.74,-1.2L46.77,-1.2L46.845,0L47.4,0L47.4,-7.2L46.74,-7.2L46.74,-1.89C45.9,-0.87 45.27,-0.42 44.415,-0.42C43.26,-0.42 42.78,-1.14 42.78,-2.67L42.78,-7.2L42.12,-7.2L42.12,-2.58Z" style="fill:rgb(140,140,140);fill-rule:nonzero;"/>
        <path d="M50.16,0L50.82,0L50.82,-5.43C51.705,-6.33 52.32,-6.78 53.175,-6.78C54.345,-6.78 54.825,-6.06 54.825,-4.53L54.825,0L55.485,0L55.485,-4.62C55.485,-6.48 54.795,-7.38 53.31,-7.38C52.32,-7.38 51.57,-6.825 50.835,-6.09L50.79,-6.09L50.73,-7.2L50.16,-7.2L50.16,0Z" style="fill:rgb(140,140,140);fill-rule:nonzero;"/>
        <path d="M58.485,-8.94C58.815,-8.94 59.085,-9.18 59.085,-9.525C59.085,-9.9 58.815,-10.125 58.485,-10.125C58.155,-10.125 57.885,-9.9 57.885,-9.525C57.885,-9.18 58.155,-8.94 58.485,-8.94ZM58.14,0L58.8,0L58.8,-7.2L58.14,-7.2L58.14,0Z" style="fill:rgb(140,140,140);fill-rule:nonzero;"/>
        <path d="M61.74,-1.995C61.74,-0.705 62.145,0.18 63.54,0.18C63.84,0.18 64.29,0.06 64.71,-0.09L64.53,-0.63C64.275,-0.51 63.9,-0.405 63.63,-0.405C62.64,-0.405 62.415,-1.02 62.415,-1.935L62.415,-6.63L64.5,-6.63L64.5,-7.2L62.415,-7.2L62.415,-9.285L61.845,-9.285L61.755,-7.2L60.615,-7.14L60.615,-6.63L61.74,-6.63L61.74,-1.995Z" style="fill:rgb(140,140,140);fill-rule:nonzero;"/>
        <path d="M65.385,2.55L65.235,3.135C65.43,3.225 65.7,3.285 65.97,3.285C67.26,3.285 67.98,2.1 68.385,0.9L71.235,-7.2L70.56,-7.2L69.015,-2.67C68.82,-2.07 68.58,-1.29 68.355,-0.66L68.295,-0.66C68.025,-1.29 67.74,-2.07 67.515,-2.67L65.775,-7.2L65.055,-7.2L68.01,0.135L67.815,0.765C67.455,1.86 66.855,2.67 65.97,2.67C65.76,2.67 65.535,2.61 65.385,2.55Z" style="fill:rgb(140,140,140);fill-rule:nonzero;"/>
        <g transform="matrix(1,0,0,1,0,16)">
            <path d="M1.455,0L2.1,0L2.1,-6.495C2.1,-7.305 2.055,-8.34 2.01,-9.165L2.07,-9.165L2.85,-6.99L4.98,-1.08L5.595,-1.08L7.71,-6.99L8.49,-9.165L8.55,-9.165C8.505,-8.34 8.46,-7.305 8.46,-6.495L8.46,0L9.135,0L9.135,-9.885L8.16,-9.885L6.09,-4.08L5.34,-1.89L5.28,-1.89L4.5,-4.08L2.43,-9.885L1.455,-9.885L1.455,0Z" style="fill:rgb(140,140,140);fill-rule:nonzero;"/>
            <path d="M11.37,-3.585C11.37,-1.23 12.855,0.18 14.7,0.18C15.75,0.18 16.395,-0.18 16.965,-0.525L16.695,-1.035C16.155,-0.645 15.54,-0.39 14.76,-0.39C13.14,-0.39 12.075,-1.695 12.045,-3.51L17.235,-3.51C17.265,-3.69 17.265,-3.87 17.265,-4.05C17.265,-6.165 16.215,-7.38 14.505,-7.38C12.9,-7.38 11.37,-5.94 11.37,-3.585ZM12.045,-4.02C12.195,-5.745 13.29,-6.81 14.52,-6.81C15.81,-6.81 16.635,-5.865 16.635,-4.02L12.045,-4.02Z" style="fill:rgb(140,140,140);fill-rule:nonzero;"/>
            <path d="M19.215,0L19.875,0L19.875,-5.43C20.67,-6.33 21.39,-6.78 22.035,-6.78C23.145,-6.78 23.655,-6.06 23.655,-4.53L23.655,0L24.315,0L24.315,-5.43C25.11,-6.33 25.8,-6.78 26.475,-6.78C27.57,-6.78 28.08,-6.06 28.08,-4.53L28.08,0L28.755,0L28.755,-4.62C28.755,-6.48 28.035,-7.38 26.595,-7.38C25.77,-7.38 24.975,-6.81 24.15,-5.91C23.895,-6.795 23.31,-7.38 22.155,-7.38C21.36,-7.38 20.535,-6.825 19.89,-6.09L19.845,-6.09L19.785,-7.2L19.215,-7.2L19.215,0Z" style="fill:rgb(140,140,140);fill-rule:nonzero;"/>
            <path d="M31.395,0L31.95,0L32.025,-0.675L32.055,-0.675C32.73,-0.15 33.525,0.18 34.215,0.18C35.91,0.18 37.395,-1.26 37.395,-3.705C37.395,-5.94 36.435,-7.38 34.515,-7.38C33.63,-7.38 32.76,-6.87 32.025,-6.255L32.055,-7.665L32.055,-10.785L31.395,-10.785L31.395,0ZM32.055,-1.335L32.055,-5.61C32.91,-6.375 33.69,-6.795 34.41,-6.795C36.06,-6.795 36.69,-5.475 36.69,-3.705C36.69,-1.755 35.64,-0.405 34.185,-0.405C33.63,-0.405 32.85,-0.66 32.055,-1.335Z" style="fill:rgb(140,140,140);fill-rule:nonzero;"/>
            <path d="M38.955,-3.585C38.955,-1.23 40.44,0.18 42.285,0.18C43.335,0.18 43.98,-0.18 44.55,-0.525L44.28,-1.035C43.74,-0.645 43.125,-0.39 42.345,-0.39C40.725,-0.39 39.66,-1.695 39.63,-3.51L44.82,-3.51C44.85,-3.69 44.85,-3.87 44.85,-4.05C44.85,-6.165 43.8,-7.38 42.09,-7.38C40.485,-7.38 38.955,-5.94 38.955,-3.585ZM39.63,-4.02C39.78,-5.745 40.875,-6.81 42.105,-6.81C43.395,-6.81 44.22,-5.865 44.22,-4.02L39.63,-4.02Z" style="fill:rgb(140,140,140);fill-rule:nonzero;"/>
            <path d="M46.8,0L47.46,0L47.46,-4.905C48.015,-6.255 48.78,-6.75 49.425,-6.75C49.71,-6.75 49.845,-6.72 50.085,-6.63L50.235,-7.23C49.995,-7.35 49.785,-7.38 49.515,-7.38C48.66,-7.38 47.955,-6.75 47.475,-5.865L47.43,-5.865L47.37,-7.2L46.8,-7.2L46.8,0Z" style="fill:rgb(140,140,140);fill-rule:nonzero;"/>
        </g>
    </g>
</svg>
